<?xml version="1.0" encoding="UTF-8" standalone="no"?>
<!-- Created with Inkscape (http://www.inkscape.org/) -->

<svg
   width="191.51164mm"
   height="62.707153mm"
   viewBox="0 0 191.51164 62.707153"
   version="1.1"
   id="svg5"
   inkscape:version="1.2.2 (b0a8486541, 2022-12-01)"
   sodipodi:docname="Logovilla.svg"
   xmlns:inkscape="http://www.inkscape.org/namespaces/inkscape"
   xmlns:sodipodi="http://sodipodi.sourceforge.net/DTD/sodipodi-0.dtd"
   xmlns="http://www.w3.org/2000/svg"
   xmlns:svg="http://www.w3.org/2000/svg">
  <sodipodi:namedview
     id="namedview7"
     pagecolor="#ffffff"
     bordercolor="#000000"
     borderopacity="0.25"
     inkscape:showpageshadow="2"
     inkscape:pageopacity="0.0"
     inkscape:pagecheckerboard="0"
     inkscape:deskcolor="#d1d1d1"
     inkscape:document-units="mm"
     showgrid="false"
     inkscape:zoom="0.75098906"
     inkscape:cx="365.51797"
     inkscape:cy="232.36024"
     inkscape:window-width="1895"
     inkscape:window-height="998"
     inkscape:window-x="12"
     inkscape:window-y="40"
     inkscape:window-maximized="1"
     inkscape:current-layer="layer1" />
  <defs
     id="defs2">
    <rect
       x="34.62101"
       y="327.56802"
       width="725.70966"
       height="284.95755"
       id="rect236" />
  </defs>
  <g
     inkscape:label="Layer 1"
     inkscape:groupmode="layer"
     id="layer1"
     transform="translate(-9.2441799,-87.964219)">
    <g
       aria-label="Inoe Villa"
       transform="matrix(0.63802861,0,0,0.63802861,-13.047667,-124.15681)"
       id="text234"
       style="font-size:96px;white-space:pre;shape-inside:url(#rect236);fill:#caa76f;fill-opacity:1">
      <path
         d="m 63.517094,352.50586 q -4.608,1.536 -8.352,2.88 -3.744,1.248 -7.68,3.168 -1.632,0.864 -2.496,-0.288 -0.768,-1.92 -0.096,-3.84 0.768,-1.92 2.4,-3.264 3.552,-2.688 9.312,-4.704 5.76,-2.016 11.904,-3.072 6.24,-1.056 12.096,-0.96 5.952,0 9.792,1.44 1.44,0.48 1.92,1.92 0.576,1.44 0.096,2.88 -0.192,0.768 -0.96,1.44 -0.672,0.672 -1.536,1.056 -0.864,0.384 -1.824,0.384 -0.96,0 -1.728,-0.576 -0.48,-0.384 -1.248,-0.48 -0.768,-0.096 -1.44,-0.192 -2.304,-0.096 -5.568,0 -3.168,0.096 -5.952,0.576 -1.344,3.648 -2.688,7.2 -1.248,3.456 -2.592,6.912 -2.112,5.376 -4.032,10.752 -1.824,5.376 -3.264,10.848 -1.344,5.376 -2.208,10.848 -0.768,5.472 -0.768,11.136 2.784,-0.096 5.472,-0.096 2.688,0 5.184,0.576 4.608,1.152 8.544,4.32 0.576,0.576 0.96,1.536 0.384,0.96 -0.672,1.248 -0.48,0.096 -1.056,0.096 -0.576,0 -1.056,0 -8.544,-0.576 -16.608,-0.48 -7.968,0.096 -16.128,2.208 -0.768,0.192 -1.44,0.384 -0.576,0.288 -1.344,0.576 -1.824,0.768 -2.784,-0.384 -0.96,-1.056 -0.672,-2.688 0.192,-1.536 1.152,-2.304 0.96,-0.672 2.016,-1.152 3.072,-1.344 6.048,-1.824 2.976,-0.576 5.952,-1.344 -1.536,-5.952 -1.056,-12 0.48,-6.144 2.112,-12.096 1.728,-6.048 4.032,-11.904 2.304,-5.856 4.416,-11.328 1.152,-2.784 2.112,-4.992 0.96,-2.208 1.728,-4.416 z"
         style="font-family:'tahu!';-inkscape-font-specification:'tahu!';fill:#caa76f;fill-opacity:1"
         id="path291" />
      <path
         d="m 80.125003,409.43386 q -0.384,0.768 -0.576,0.96 -1.536,1.056 -2.112,-0.576 -0.192,-0.768 -0.288,-1.44 -0.096,-0.672 -0.096,-1.44 -0.096,-2.112 0,-4.224 0.288,-2.4 1.152,-5.184 0.864,-2.88 2.016,-5.664 1.248,-2.784 2.496,-5.184 1.344,-2.496 2.496,-4.032 0.576,-0.864 1.536,-0.96 1.056,-0.096 2.016,0.48 0.96,0.576 1.536,1.632 0.576,1.056 0.288,2.4 -0.096,0.096 -0.384,0.576 -0.288,0.48 -0.576,1.056 -0.288,0.576 -0.576,1.152 -0.288,0.48 -0.384,0.576 1.056,-0.768 2.112,-1.728 1.056,-0.96 2.112,-1.824 1.152,-0.864 2.304,-1.44 1.152,-0.672 2.496,-0.672 1.632,0 2.879997,0.96 1.248,0.864 2.016,2.208 0.864,1.248 1.056,2.784 0.192,1.44 -0.192,2.784 -0.864,2.592 -2.4,5.088 -1.535997,2.4 -3.167997,4.8 -1.536,2.4 -2.88,4.896 -1.344,2.4 -1.92,4.992 -0.576,2.016 -0.096,2.496 0.576,0.48 1.44,0.192 0.864,-0.288 1.728,-0.96 0.96,-0.672 1.344,-0.96 3.935997,-3.072 7.391997,-6.72 3.456,-3.744 6.816,-7.104 2.88,-2.88 3.552,-3.072 0.768,-0.288 0.192,0.96 -0.48,1.152 -1.728,3.168 -1.152,2.016 -2.112,3.552 -1.152,1.92 -3.168,4.704 -2.016,2.688 -4.512,5.184 -2.4,2.592 -4.991997,4.32 -2.592,1.824 -4.8,1.824 -1.632,0 -2.88,-0.768 -1.248,-0.672 -2.112,-1.728 -0.864,-1.056 -1.344,-2.4 -0.384,-1.344 -0.384,-2.688 0,-4.8 1.92,-9.408 2.016,-4.608 4.224,-8.448 1.056,-2.016 0.576,-2.784 -0.48,-0.768 -2.784,0.288 -1.92,0.864 -3.552,3.168 -1.632,2.208 -3.072,4.896 -1.344,2.592 -2.496,5.184 -1.152,2.592 -2.112,4.128 z"
         style="font-family:'tahu!';-inkscape-font-specification:'tahu!';fill:#caa76f;fill-opacity:1"
         id="path293" />
      <path
         d="m 132.44491,393.59386 q 1.152,-0.096 2.496,-0.576 1.344,-0.48 2.496,-0.768 1.344,-0.384 2.784,-0.864 1.536,-0.576 2.88,-0.864 0.96,0 0.768,0.576 -0.192,0.48 -0.96,1.248 -0.672,0.672 -1.632,1.344 -0.864,0.672 -1.344,0.96 -2.304,1.056 -4.608,1.632 -2.208,0.576 -4.224,1.632 -0.864,1.536 -2.4,4.128 -1.536,2.496 -3.456,4.896 -1.824,2.4 -3.936,4.128 -2.016,1.728 -3.936,1.728 -2.688,0 -4.608,-1.536 -1.44,-0.96 -2.112,-2.976 -0.768,-2.016 -0.864,-4.32 -0.192,-2.4 0.096,-4.608 0.288,-2.304 0.672,-3.744 0.096,-0.672 0.288,-0.864 0.192,-0.288 0.384,-0.384 0.192,-0.096 0.48,-0.192 0.192,-0.096 0.384,-0.384 0.288,-1.056 0.576,-2.208 0.288,-1.152 0.864,-2.112 1.632,-2.88 4.128,-5.28 2.592,-2.496 5.952,-2.88 2.112,-0.384 3.84,0.192 1.824,0.576 3.168,2.208 1.152,1.248 1.632,2.784 0.48,1.44 0.576,2.88 0.096,1.344 -0.096,2.496 -0.192,1.152 -0.288,1.728 z m -5.472,0.96 q 0.192,0 0.384,-0.192 0.192,-0.192 0.192,-0.384 0.768,-1.824 0.672,-4.032 0,-2.208 -1.344,-3.552 -0.672,-0.768 -1.728,-0.864 -1.056,-0.096 -2.016,0.384 -1.92,1.152 -3.072,2.688 -1.152,1.536 -2.208,3.168 0,0.48 0.192,0.672 0.96,0.864 0.864,1.92 0,0.48 1.056,0.576 1.152,0.096 2.496,0.096 1.44,-0.096 2.688,-0.288 1.344,-0.192 1.824,-0.192 z m -8.544,14.784 q 0.96,-0.192 2.112,-1.344 1.248,-1.248 2.304,-2.784 1.152,-1.536 1.92,-3.072 0.864,-1.632 1.152,-2.688 -1.92,0.192 -4.128,0.192 -2.208,0 -4.128,-0.384 -0.288,0.864 -0.384,2.304 -0.096,1.344 0,2.88 0.096,1.44 0.384,2.784 0.288,1.344 0.768,2.112 z"
         style="font-family:'tahu!';-inkscape-font-specification:'tahu!';fill:#caa76f;fill-opacity:1"
         id="path295" />
      <path
         d="m 138.20481,403.96186 q -0.192,-3.648 0.768,-7.584 0.96,-3.936 2.88,-7.2 1.92,-3.36 4.8,-5.472 2.976,-2.112 6.912,-2.208 2.016,0.48 3.072,2.016 1.152,1.536 0.672,3.744 -0.384,2.112 -1.152,3.648 -0.672,1.44 -2.4,3.072 -0.864,0.768 -2.4,2.016 -1.536,1.248 -2.976,2.592 -1.44,1.344 -2.496,2.784 -1.056,1.344 -1.056,2.304 -0.288,2.496 0.768,3.264 1.056,0.672 2.688,0.576 1.728,-0.192 3.456,-0.96 1.728,-0.768 2.784,-1.344 1.248,-0.864 2.784,-2.112 1.536,-1.344 3.072,-2.784 1.536,-1.44 2.976,-2.784 1.44,-1.344 2.4,-2.208 0.768,-0.768 1.344,-1.44 0.672,-0.672 1.536,-1.152 0.768,-0.192 1.152,-0.096 0.48,0.096 -0.096,1.44 -0.768,1.632 -1.92,3.072 -1.056,1.44 -2.304,2.88 -1.728,1.92 -3.744,4.032 -1.92,2.112 -4.128,3.936 -2.112,1.728 -4.512,3.072 -2.304,1.248 -4.8,1.632 -4.416,0.288 -7.296,-1.824 -2.784,-2.112 -2.784,-6.912 z m 15.36,-18.048 q -2.592,0.96 -4.128,2.496 -1.44,1.536 -2.112,4.512 2.112,-1.536 3.744,-3.072 1.728,-1.632 2.496,-3.936 z"
         style="font-family:'tahu!';-inkscape-font-specification:'tahu!';fill:#caa76f;fill-opacity:1"
         id="path297" />
      <path
         d="m 191.10059,412.21786 q -1.632,-2.208 -2.88,-4.896 -1.248,-2.688 -2.016,-5.472 -1.632,-12.288 -0.096,-23.808 1.536,-11.616 4.992,-22.848 0.576,-1.248 2.496,-1.248 1.92,0 3.84,0.864 1.92,0.864 3.168,2.304 1.248,1.44 0.576,2.976 -1.056,2.304 -2.112,6.24 -1.056,3.84 -2.016,8.544 -0.96,4.704 -1.728,9.888 -0.672,5.088 -1.056,9.792 -0.288,4.704 -0.096,8.544 0.192,3.744 1.152,5.952 4.512,-6.048 8.256,-12.48 3.744,-6.528 7.008,-13.152 3.36,-6.72 6.336,-13.536 2.976,-6.816 5.856,-13.44 1.44,-3.36 2.784,-7.104 1.44,-3.744 3.744,-6.432 0.96,-0.864 1.44,-0.576 0.576,0.288 0.768,1.152 0.192,0.768 0.192,1.728 0,0.864 0,1.344 -0.672,4.416 -1.152,8.736 -0.48,4.32 -2.016,8.352 -2.496,6.336 -5.184,12.576 -2.592,6.24 -5.664,12.288 -2.976,6.048 -6.528,11.808 -3.456,5.664 -7.584,10.848 -3.264,4.128 -6.528,4.32 -3.168,0.288 -5.952,-3.264 z"
         style="font-family:'tahu!';-inkscape-font-specification:'tahu!';fill:#caa76f;fill-opacity:1"
         id="path299" />
      <path
         d="m 246.87642,392.24986 1.152,-1.152 h 0.096 v 0.192 q 0.192,2.208 -0.384,3.36 -0.576,1.056 -0.576,1.152 -0.96,1.44 -2.592,3.744 -1.632,2.208 -3.456,4.608 -1.728,2.304 -3.36,4.32 -1.632,1.92 -2.592,2.784 -1.152,1.344 -2.496,2.496 -0.48,0.384 -1.344,0.672 -0.768,0.288 -1.632,0.384 -0.864,0.192 -1.728,0.096 -0.768,-0.096 -1.248,-0.48 -1.632,-1.056 -2.496,-2.496 -0.96,-1.536 -0.96,-3.264 -0.288,-5.28 0.96,-10.752 1.152,-5.568 2.784,-10.08 0.48,-1.344 1.344,-2.784 0.864,-0.864 2.016,-0.48 1.152,0.384 2.016,1.632 0.96,1.152 1.344,2.88 0.48,1.728 -0.096,3.456 -0.48,1.632 -0.864,3.168 -0.384,1.44 -0.864,3.072 -0.192,0.768 -0.672,2.208 -0.384,1.44 -0.864,3.072 -0.48,1.536 -0.864,2.976 -0.384,1.44 -0.48,2.208 -0.192,1.44 0.768,0.768 0.96,-0.672 2.592,-2.304 3.936,-4.032 7.488,-7.776 3.552,-3.84 7.008,-7.68 z m -13.44,-11.52 q -0.672,0.672 -0.96,0 -1.248,-1.92 -1.632,-4.032 -0.384,-2.112 0.384,-4.224 0.384,-1.248 1.632,-2.016 1.344,-0.864 2.4,-0.576 0.576,0.192 1.248,0.672 0.672,0.384 0.864,0.96 0.672,2.592 -0.768,4.992 -1.344,2.4 -3.168,4.224 z"
         style="font-family:'tahu!';-inkscape-font-specification:'tahu!';fill:#caa76f;fill-opacity:1"
         id="path301" />
      <path
         d="m 273.18025,422.87386 q 0.48,0.96 0.864,0.576 0.384,-0.384 1.152,-0.864 2.592,-2.304 5.664,-5.952 3.168,-3.648 6.144,-7.584 3.072,-3.936 5.664,-7.68 2.688,-3.84 4.32,-6.336 0.192,-0.384 0.576,-0.768 0.384,-0.48 0.672,-0.864 0.768,-0.768 1.152,-0.192 0.48,0.576 0.192,1.44 -1.44,2.4 -3.744,6.912 -2.208,4.512 -5.088,9.504 -2.784,4.992 -6.048,9.696 -3.168,4.704 -6.336,7.584 -2.304,2.112 -4.992,2.4 -2.496,-0.096 -4.704,-1.632 -2.208,-1.44 -2.592,-3.936 -0.576,-5.856 0.192,-11.808 0.864,-7.2 3.36,-16.128 2.496,-8.928 5.856,-18.048 -2.496,5.472 -5.568,12.096 -2.976,6.624 -5.856,12.672 -2.784,6.048 -5.28,10.56 -2.4,4.512 -3.744,5.76 -2.304,2.112 -4.992,2.4 -2.496,-0.096 -4.704,-1.632 -2.208,-1.44 -2.592,-3.936 -0.576,-5.856 0.192,-11.808 0.864,-6.912 3.072,-15.168 2.304,-8.352 5.376,-16.8 3.168,-8.448 6.816,-16.32 3.648,-7.872 7.2,-13.824 1.632,-2.592 3.264,-4.896 1.632,-2.4 3.456,-4.416 0.672,-0.864 1.632,-1.248 1.056,-0.384 2.112,0.096 2.112,0.96 1.824,3.552 -0.672,5.664 -2.688,12 -2.016,6.336 -4.896,12.48 -2.784,6.144 -6.144,11.712 -3.264,5.472 -6.624,9.6 -0.288,0.288 -0.48,0.672 -0.096,0.384 -0.288,0.768 -1.44,3.84 -2.88,8.448 -1.344,4.608 -2.4,9.024 -0.96,4.32 -1.44,8.064 -0.384,3.744 0,5.76 0.48,0.96 1.248,0.96 0.864,0.096 1.632,-0.384 1.632,-1.44 4.032,-5.28 2.496,-3.936 5.28,-9.12 2.784,-5.28 5.76,-11.232 3.072,-5.952 5.856,-11.52 2.88,-5.568 5.28,-10.08 2.4,-4.512 4.032,-6.912 1.632,-3.36 3.168,-6.336 1.632,-3.072 3.168,-5.664 1.632,-2.592 3.264,-4.896 1.632,-2.4 3.456,-4.416 0.672,-0.864 1.632,-1.248 1.056,-0.384 2.112,0.096 2.112,0.96 1.824,3.552 -0.672,5.664 -2.4,11.04 -1.632,5.376 -4.032,10.368 -2.4,4.992 -5.376,9.6 -2.976,4.608 -6.336,8.736 -0.288,0.288 -0.48,0.672 -0.096,0.384 -0.288,0.768 -0.96,2.592 -2.112,6.144 -1.152,3.456 -2.304,7.392 -1.152,3.936 -2.208,7.968 -0.96,3.936 -1.728,7.488 -0.768,3.552 -1.152,6.24 -0.288,2.784 0,4.128 z m 2.496,-82.08 q -2.016,3.456 -4.224,7.968 -2.208,4.512 -4.32,9.312 -2.016,4.704 -4.032,9.312 -1.92,4.608 -3.552,8.256 0.864,-0.864 2.304,-3.36 1.44,-2.496 3.072,-5.856 1.728,-3.36 3.456,-7.2 1.824,-3.84 3.264,-7.392 1.536,-3.552 2.592,-6.432 1.152,-2.976 1.44,-4.608 z m 23.904,6.048 q -4.128,6.912 -7.392,14.208 -3.264,7.296 -6.528,14.592 0.864,-0.864 2.112,-2.88 1.344,-2.112 2.784,-4.704 1.44,-2.688 2.88,-5.76 1.44,-3.072 2.688,-5.952 1.248,-2.88 2.208,-5.376 0.96,-2.592 1.248,-4.128 z"
         style="font-family:'tahu!';-inkscape-font-specification:'tahu!';fill:#caa76f;fill-opacity:1"
         id="path303" />
      <path
         d="m 308.41216,406.64986 q -0.864,0.672 -1.92,1.536 -1.056,0.768 -2.304,1.44 -1.248,0.576 -2.688,0.96 -1.344,0.288 -2.88,0 -1.152,-0.192 -2.112,-0.768 -0.96,-0.672 -1.824,-1.536 -0.864,-0.864 -1.056,-2.496 -0.192,-1.632 -0.096,-2.592 0.48,-2.496 1.344,-5.28 0.864,-2.784 2.112,-5.472 2.112,-4.416 5.376,-7.872 3.264,-3.456 7.872,-4.416 1.536,-0.384 3.168,-0.096 1.728,0.192 2.976,1.056 1.248,0.864 1.92,2.208 0.672,1.248 0.288,2.784 -0.192,0.576 -0.48,1.152 -0.192,0.576 -0.576,0.96 -0.288,0.384 -0.576,0.48 -0.288,0 -0.576,-0.576 -0.096,-0.288 -0.288,-0.768 -0.096,-0.576 -0.384,-1.056 -0.288,-0.576 -0.864,-0.96 -0.48,-0.48 -1.344,-0.48 -1.824,0 -4.128,2.304 -2.304,2.208 -4.416,5.28 -2.112,2.976 -3.648,6.048 -1.536,2.976 -1.92,4.512 -0.576,2.496 0.096,2.688 0.672,0.096 2.112,-1.056 1.44,-1.248 3.264,-3.36 1.824,-2.112 3.456,-4.128 1.632,-2.112 2.784,-3.648 1.248,-1.632 1.344,-1.728 1.248,-0.96 2.496,-0.864 1.248,0.096 2.112,0.96 0.96,0.768 1.248,2.016 0.384,1.152 -0.192,2.4 -0.672,1.536 -1.824,3.648 -1.056,2.112 -1.344,3.744 -0.288,2.496 0.576,3.264 0.864,0.768 3.168,-0.096 1.824,-0.768 3.84,-2.688 2.016,-2.016 3.936,-4.224 2.016,-2.208 3.744,-4.224 1.728,-2.016 2.88,-2.976 0.288,-0.288 0.672,-0.576 0.48,-0.384 0.768,-0.192 0.48,0.192 0.48,0.576 0.096,0.288 0.096,0.672 -1.248,3.072 -2.976,6.048 -1.728,2.976 -3.936,5.568 -2.112,2.496 -4.8,4.512 -2.592,1.92 -5.664,3.072 -1.92,0.672 -3.456,0.384 -1.536,-0.192 -2.784,-1.056 -1.248,-0.864 -2.016,-2.208 -0.768,-1.344 -1.056,-2.88 z"
         style="font-family:'tahu!';-inkscape-font-specification:'tahu!';fill:#caa76f;fill-opacity:1"
         id="path305" />
    </g>
  </g>
</svg>
