<?xml version="1.0" encoding="UTF-8" standalone="no"?>
<!-- Created with Inkscape (http://www.inkscape.org/) -->

<svg
   width="132.29167mm"
   height="132.29167mm"
   viewBox="0 0 132.29167 132.29167"
   version="1.1"
   id="svg5"
   inkscape:version="1.2.2 (b0a8486541, 2022-12-01)"
   sodipodi:docname="tabicon.svg"
   xmlns:inkscape="http://www.inkscape.org/namespaces/inkscape"
   xmlns:sodipodi="http://sodipodi.sourceforge.net/DTD/sodipodi-0.dtd"
   xmlns="http://www.w3.org/2000/svg"
   xmlns:svg="http://www.w3.org/2000/svg">
  <sodipodi:namedview
     id="namedview7"
     pagecolor="#ffffff"
     bordercolor="#000000"
     borderopacity="0.25"
     inkscape:showpageshadow="2"
     inkscape:pageopacity="0.0"
     inkscape:pagecheckerboard="0"
     inkscape:deskcolor="#d1d1d1"
     inkscape:document-units="mm"
     showgrid="false"
     showguides="true"
     inkscape:zoom="1.096075"
     inkscape:cx="265.94895"
     inkscape:cy="198.89149"
     inkscape:window-width="1895"
     inkscape:window-height="1004"
     inkscape:window-x="12"
     inkscape:window-y="40"
     inkscape:window-maximized="1"
     inkscape:current-layer="layer1">
    <sodipodi:guide
       position="-5.0559061e-07,66.145844"
       orientation="1,0"
       id="guide296"
       inkscape:locked="false" />
    <sodipodi:guide
       position="66.14583,132.29167"
       orientation="0,-1"
       id="guide352"
       inkscape:locked="false" />
    <sodipodi:guide
       position="66.14583,9.6992195e-06"
       orientation="0,-1"
       id="guide354"
       inkscape:locked="false" />
    <sodipodi:guide
       position="132.29166,66.145844"
       orientation="1,0"
       id="guide356"
       inkscape:locked="false" />
    <sodipodi:guide
       position="66.14583,66.145834"
       orientation="1,0"
       id="guide622"
       inkscape:locked="false" />
    <sodipodi:guide
       position="66.14583,66.145834"
       orientation="0,-1"
       id="guide624"
       inkscape:locked="false" />
  </sodipodi:namedview>
  <defs
     id="defs2">
    <rect
       x="132.896"
       y="334.17542"
       width="152.2498"
       height="175.47433"
       id="rect466" />
  </defs>
  <g
     inkscape:label="Layer 1"
     inkscape:groupmode="layer"
     id="layer1"
     transform="translate(-35.162067,-78.175865)">
    <g
       aria-label="IV"
       transform="matrix(0.89504807,0,0,0.89504807,-74.405048,-202.84554)"
       id="text464"
       style="font-size:133.333px;font-family:'tahu!';-inkscape-font-specification:'tahu!';white-space:pre;shape-inside:url(#rect466);fill:#caa76f">
      <path
         d="m 173.02972,348.64562 q -6.39999,2.13333 -11.59998,3.99999 -5.19998,1.73333 -10.66663,4.39999 -2.26667,1.2 -3.46666,-0.4 -1.06667,-2.66666 -0.13334,-5.33332 1.06667,-2.66666 3.33333,-4.53332 4.93332,-3.73333 12.9333,-6.53332 7.99998,-2.79999 16.53329,-4.26665 8.66665,-1.46667 16.79996,-1.33333 8.26664,0 13.59996,1.99999 2,0.66667 2.66666,2.66666 0.8,2 0.13334,3.99999 -0.26667,1.06666 -1.33333,2 -0.93333,0.93333 -2.13333,1.46666 -1.2,0.53333 -2.53333,0.53333 -1.33333,0 -2.39999,-0.8 -0.66667,-0.53333 -1.73333,-0.66666 -1.06667,-0.13334 -2,-0.26667 -3.19999,-0.13333 -7.73331,0 -4.39999,0.13333 -8.26665,0.8 -1.86666,5.06665 -3.73332,9.99997 -1.73333,4.79999 -3.59999,9.59998 -2.93333,7.46665 -5.59999,14.93329 -2.53332,7.46665 -4.53332,15.06663 -1.86666,7.46665 -3.06666,15.06663 -1.06666,7.59998 -1.06666,15.46663 3.86666,-0.13333 7.59998,-0.13333 3.73332,0 7.19998,0.79999 6.39999,1.6 11.86664,5.99999 0.8,0.8 1.33333,2.13333 0.53333,1.33333 -0.93333,1.73332 -0.66667,0.13334 -1.46667,0.13334 -0.79999,0 -1.46666,0 -11.86664,-0.8 -23.06661,-0.66667 -11.06663,0.13334 -22.39994,3.06666 -1.06666,0.26667 -1.99999,0.53333 -0.8,0.4 -1.86667,0.8 -2.53332,1.06667 -3.86665,-0.53333 -1.33333,-1.46666 -0.93333,-3.73332 0.26666,-2.13333 1.59999,-3.2 1.33333,-0.93333 2.8,-1.59999 4.26665,-1.86666 8.39997,-2.53333 4.13333,-0.8 8.26665,-1.86666 -2.13333,-8.26665 -1.46666,-16.66662 0.66666,-8.53332 2.93332,-16.79996 2.4,-8.39998 5.59999,-16.53329 3.19999,-8.13332 6.13332,-15.7333 1.59999,-3.86665 2.93332,-6.93331 1.33333,-3.06666 2.4,-6.13332 z"
         id="path1906" />
      <path
         d="m 202.89618,431.57874 q -2.26666,-3.06666 -3.99999,-6.79998 -1.73333,-3.73332 -2.79999,-7.59998 -2.26667,-17.06662 -0.13334,-33.06658 2.13333,-16.1333 6.93332,-31.73326 0.8,-1.73332 3.46666,-1.73332 2.66666,0 5.33332,1.19999 2.66666,1.2 4.39998,3.19999 1.73333,2 0.8,4.13333 -1.46666,3.19999 -2.93332,8.66664 -1.46667,5.33332 -2.8,11.86664 -1.33333,6.53331 -2.39999,13.7333 -0.93333,7.06664 -1.46666,13.59996 -0.4,6.53332 -0.13334,11.86664 0.26667,5.19998 1.6,8.26664 6.26665,-8.39998 11.46664,-17.33329 5.19998,-9.06664 9.73331,-18.26662 4.66665,-9.33331 8.79997,-18.79995 4.13333,-9.46664 8.13332,-18.66662 1.99999,-4.66665 3.86665,-9.86664 2,-5.19998 5.19999,-8.93331 1.33333,-1.2 1.99999,-0.8 0.8,0.4 1.06667,1.6 0.26666,1.06666 0.26666,2.39999 0,1.2 0,1.86667 -0.93333,6.13331 -1.59999,12.1333 -0.66667,5.99998 -2.79999,11.59997 -3.46666,8.79998 -7.19999,17.46662 -3.59999,8.66664 -7.86664,17.06662 -4.13333,8.39998 -9.06665,16.39996 -4.79998,7.86665 -10.5333,15.06663 -4.53332,5.73332 -9.06665,5.99998 -4.39998,0.4 -8.26664,-4.53332 z"
         id="path1908" />
    </g>
  </g>
</svg>
