<?xml version="1.0" encoding="UTF-8" standalone="no"?>
<!-- Created with Inkscape (http://www.inkscape.org/) -->

<svg
   width="123.87521mm"
   height="113.46594mm"
   viewBox="0 0 123.87521 113.46594"
   version="1.1"
   id="svg5"
   xml:space="preserve"
   inkscape:version="1.2.2 (b0a8486541, 2022-12-01)"
   sodipodi:docname="andbird.svg"
   xmlns:inkscape="http://www.inkscape.org/namespaces/inkscape"
   xmlns:sodipodi="http://sodipodi.sourceforge.net/DTD/sodipodi-0.dtd"
   xmlns="http://www.w3.org/2000/svg"
   xmlns:svg="http://www.w3.org/2000/svg"><sodipodi:namedview
     id="namedview7"
     pagecolor="#ffffff"
     bordercolor="#000000"
     borderopacity="0.25"
     inkscape:showpageshadow="2"
     inkscape:pageopacity="0.0"
     inkscape:pagecheckerboard="0"
     inkscape:deskcolor="#d1d1d1"
     inkscape:document-units="mm"
     showgrid="false"
     inkscape:zoom="1.096075"
     inkscape:cx="327.9885"
     inkscape:cy="136.85195"
     inkscape:window-width="1895"
     inkscape:window-height="1004"
     inkscape:window-x="12"
     inkscape:window-y="40"
     inkscape:window-maximized="1"
     inkscape:current-layer="layer1" /><defs
     id="defs2" /><g
     inkscape:label="Layer 1"
     inkscape:groupmode="layer"
     id="layer1"
     transform="translate(-48.528962,-97.677154)"><path
       style="fill:#caa76f;stroke-width:0.264583;fill-opacity:1"
       d="m 93.879309,152.59655 c 0,0 -7.553018,9.64397 -16.215516,9.77198 -8.6625,0.12802 -23.085777,-1.15215 -23.085777,-1.15215 0,0 0.04267,24.32327 8.577154,30.98017 8.534485,6.6569 13.825863,9.9 13.825863,9.9 l -0.768104,5.46207 c 0,0 -23.128446,-11.86293 -25.944827,-29.7 -2.816378,-17.83707 -1.365517,-22.10431 -1.365517,-22.10431 0,0 6.656898,2.21896 17.15431,2.38965 10.497416,0.17069 20.056036,-2.81638 21.848276,-4.69396 1.792242,-1.87759 2.816381,-3.2431 2.816381,-3.2431 z"
       id="path410" /><path
       style="fill:#caa76f;stroke-width:0.264583;fill-opacity:1"
       d="m 79.417843,197.21696 c 0,0 7.875402,-13.15585 15.268022,-15.11716 7.392615,-1.9613 29.149475,-6.46015 33.758095,-11.83687 4.60863,-5.37673 24.32328,-31.4069 28.24914,-33.79655 3.92586,-2.38966 5.12069,-2.90173 5.12069,-2.90173 v -2.475 c 0,0 -7.98698,-1.58304 -12.57342,-4.38922 -4.58644,-2.80618 -11.52645,-5.43131 -18.43629,0.48278 -6.90983,5.9141 -8.32801,5.43131 -10.25914,1.11644 -1.93113,-4.31488 -3.45184,-17.01 -4.34796,-19.10095 -0.89612,-2.09094 -3.49914,-8.9612 -17.581034,-8.74784 -14.081895,0.21336 -28.718534,-0.17069 -32.601723,-0.810776 -3.883189,-0.640085 -9.003879,-1.96293 -9.003879,-1.96293 0,0 10.753447,23.256466 18.861207,31.876296 8.107759,8.61982 17.751723,17.325 21.080171,19.11724 3.328448,1.79224 6.144828,2.98707 6.144828,2.98707 l 4.52328,-1.7069 c 0,0 -16.386211,-9.81465 -25.859485,-21.08017 -9.473277,-11.26552 -17.325001,-24.15259 -17.325001,-24.15259 0,0 28.590517,0.17069 30.38276,-0.0853 1.792239,-0.25604 8.193106,-0.59742 9.899996,0.34138 1.7069,0.93879 6.91293,2.90172 8.19311,11.26551 1.28017,8.3638 2.26163,13.82587 5.80344,16.59957 3.54181,2.77371 8.74785,3.24311 11.00949,0.21337 2.26163,-3.02975 7.12629,-7.93707 11.77758,-6.14483 4.6513,1.79224 7.68104,3.84051 10.02802,4.43793 2.34698,0.59741 4.86465,1.49353 4.86465,1.49353 0,0 -10.62543,6.40086 -13.05775,12.0763 -2.43233,5.67543 -9.68664,13.69784 -11.77759,16.3862 -2.09095,2.68836 -4.39526,8.91854 -21.46422,13.3138 -17.068969,4.39525 -23.555176,7.76638 -27.225003,12.16163 -3.669829,4.39526 -6.1875,8.91854 -6.1875,8.91854 z"
       id="path412" /><path
       style="fill:#caa76f;stroke-width:0.264583;fill-opacity:1"
       d="m 126.64008,177.57371 3.22861,-2.082 c 0,0 7.9632,11.58415 11.46234,14.57122 3.49914,2.98707 18.2638,11.94827 19.88535,12.54569 1.62155,0.59741 3.2431,1.28017 3.2431,1.28017 0,0 3.32845,-26.62758 2.90172,-30.55345 -0.42672,-3.92586 1.7069,-10.24138 -4.86465,-10.83879 -6.57155,-0.59742 -13.56983,-0.7681 -16.13017,-2.30431 -2.56035,-1.53621 -2.75237,-1.66422 -2.75237,-1.66422 l 1.45086,-2.83772 c 0,0 6.20884,2.30431 9.1959,2.2403 2.98707,-0.064 10.75345,0.29871 11.43621,0.38405 0.68276,0.0854 6.9556,2.09095 6.69957,8.83319 -0.25603,6.74224 -1.92026,27.35302 -2.30431,29.82802 -0.38405,2.475 -1.92026,14.16724 -1.92026,14.16724 0,0 -16.94095,-7.97974 -23.17112,-13.10043 -6.23017,-5.12069 -16.81293,-17.75172 -17.49569,-18.81853 -0.68276,-1.06681 -0.86509,-1.65043 -0.86509,-1.65043 z"
       id="path414" /><circle
       style="fill:#caa76f;stroke-width:0.264583;fill-opacity:1"
       id="path468"
       cx="139.88017"
       cy="132.45517"
       r="2.4109914" /></g></svg>
